<svg xmlns="http://www.w3.org/2000/svg">

    <symbol id="icon-user" viewBox="0 0 24 24">
        <path d="M19 21v-2a4 4 0 0 0-4-4H9a4 4 0 0 0-4 4v2"
              fill="none" stroke="currentColor" stroke-width="2"
              stroke-linecap="round" stroke-linejoin="round" />
        <circle cx="12" cy="7" r="4"
                fill="none" stroke="currentColor" stroke-width="2" />
    </symbol>

    <symbol id="icon-cart" viewBox="0 0 24 24">
        <circle cx="8" cy="21" r="1"
                fill="none" stroke="currentColor" stroke-width="2" />
        <circle cx="19" cy="21" r="1"
                fill="none" stroke="currentColor" stroke-width="2" />
        <path d="M2.05 2.05h2l2.66 12.42a2 2 0 0 0 2 1.58h9.78a2 2 0 0 0 1.95-1.57l1.65-7.43H5.12"
              fill="none" stroke="currentColor" stroke-width="2"
              stroke-linecap="round" stroke-linejoin="round" />
    </symbol>

    <symbol id="icon-cart-button" viewBox="0 0 24 24">
        <circle cx="8" cy="21" r="1" 
                fill="none" stroke="currentColor" stroke-width="2" />
        <circle cx="19" cy="21" r="1" 
                fill="none" stroke="currentColor" stroke-width="2" />
        <path d="M2.05 2.05h2l2.66 12.42a2 2 0 0 0 2 1.58h9.78a2 2 0 0 0 1.95-1.57l1.65-7.43H5.12" 
            fill="none" stroke="currentColor" stroke-width="2" 
            stroke-linecap="round" stroke-linejoin="round" />
    </symbol>

    <symbol id="icon-search" viewBox="0 0 24 24">
        <path d="m21 21-4.34-4.34"
              fill="none" stroke="currentColor" stroke-width="2"
              stroke-linecap="round" stroke-linejoin="round" />
        <circle cx="11" cy="11" r="8"
                fill="none" stroke="currentColor" stroke-width="2" />
    </symbol>

    <symbol id="icon-menu" viewBox="0 0 24 24">
        <path d="M4 5h16"
              fill="none" stroke="currentColor" stroke-width="2"
              stroke-linecap="round" stroke-linejoin="round" />
        <path d="M4 12h16"
              fill="none" stroke="currentColor" stroke-width="2"
              stroke-linecap="round" stroke-linejoin="round" />
        <path d="M4 19h16"
              fill="none" stroke="currentColor" stroke-width="2"
              stroke-linecap="round" stroke-linejoin="round" />
    </symbol>

    <symbol id="icon-arrow" viewBox="0 0 24 24">
        <path d="m12 19-7-7 7-7"
              fill="none" stroke="currentColor" stroke-width="2"
              stroke-linecap="round" stroke-linejoin="round" />
        <path d="M19 12H5"
              fill="none" stroke="currentColor" stroke-width="2"
              stroke-linecap="round" stroke-linejoin="round" />
    </symbol>

    <symbol id="icon-trash" viewBox="0 0 24 24">
        <path d="M10 11v6" 
            fill="none" stroke="currentColor" stroke-width="2" 
            stroke-linecap="round" stroke-linejoin="round" />
        <path d="M14 11v6" 
            fill="none" stroke="currentColor" stroke-width="2" 
            stroke-linecap="round" stroke-linejoin="round" />
        <path d="M19 6v14a2 2 0 0 1-2 2H7a2 2 0 0 1-2-2V6" 
            fill="none" stroke="currentColor" stroke-width="2" 
            stroke-linecap="round" stroke-linejoin="round" />
        <path d="M3 6h18" 
            fill="none" stroke="currentColor" stroke-width="2" 
            stroke-linecap="round" stroke-linejoin="round" />
        <path d="M8 6V4a2 2 0 0 1 2-2h4a2 2 0 0 1 2 2v2" 
            fill="none" stroke="currentColor" stroke-width="2" 
            stroke-linecap="round" stroke-linejoin="round" />
    </symbol>

    <symbol id="icon-copy" viewBox="0 0 24 24">
        <rect width="14" height="14" x="8" y="8" rx="2" ry="2" fill="none" stroke="currentColor" stroke-width="2"
            stroke-linecap="round" stroke-linejoin="round" />
        <path d="M4 16c-1.1 0-2-.9-2-2V4c0-1.1.9-2 2-2h10c1.1 0 2 .9 2 2" fill="none" stroke="currentColor"
            stroke-width="2" stroke-linecap="round" stroke-linejoin="round" />
    </symbol>

    <symbol id="icon-shield" viewBox="0 0 24 24">
        <path
            d="M20 13c0 5-3.5 7.5-7.66 8.95a1 1 0 0 1-.67-.01C7.5 20.5 4 18 4 13V6a1 1 0 0 1 1-1c2 0 4.5-1.2 6.24-2.72a1.17 1.17 0 0 1 1.52 0C14.51 3.81 17 5 19 5a1 1 0 0 1 1 1z"
            fill="none" stroke="currentColor" stroke-width="2" stroke-linecap="round" stroke-linejoin="round" />
    </symbol>

    <symbol id="icon-truck" viewBox="0 0 24 24">
        <path d="M14 18V6a2 2 0 0 0-2-2H4a2 2 0 0 0-2 2v11a1 1 0 0 0 1 1h2" fill="none" stroke="currentColor"
            stroke-width="2" stroke-linecap="round" stroke-linejoin="round" />
        <path d="M15 18H9" fill="none" stroke="currentColor" stroke-width="2" stroke-linecap="round"
            stroke-linejoin="round" />
        <path d="M19 18h2a1 1 0 0 0 1-1v-3.65a1 1 0 0 0-.22-.624l-3.48-4.35A1 1 0 0 0 17.52 8H14" fill="none"
            stroke="currentColor" stroke-width="2" stroke-linecap="round" stroke-linejoin="round" />
        <circle cx="17" cy="18" r="2" fill="none" stroke="currentColor" stroke-width="2" />
        <circle cx="7" cy="18" r="2" fill="none" stroke="currentColor" stroke-width="2" />
    </symbol>

    <symbol id="icon-check" viewBox="0 0 24 24">
        <path d="M20 6 9 17l-5-5" fill="none" stroke="currentColor" stroke-width="2" stroke-linecap="round"
            stroke-linejoin="round" />
    </symbol>

    <symbol id="icon-user-circle" viewBox="0 0 24 24">
        <path d="M18 20a6 6 0 0 0-12 0" fill="none" stroke="currentColor" stroke-width="2" stroke-linecap="round"
            stroke-linejoin="round" />
        <circle cx="12" cy="10" r="4" fill="none" stroke="currentColor" stroke-width="2" />
        <circle cx="12" cy="12" r="10" fill="none" stroke="currentColor" stroke-width="2" />
    </symbol>

    <symbol id="icon-eye" viewBox="0 0 24 24">
        <path d="M2.062 12.348a1 1 0 0 1 0-.696 10.75 10.75 0 0 1 19.876 0 1 1 0 0 1 0 .696 10.75 10.75 0 0 1-19.876 0"
            fill="none" stroke="currentColor" stroke-width="2" stroke-linecap="round" stroke-linejoin="round" />
        <circle cx="12" cy="12" r="3" fill="none" stroke="currentColor" stroke-width="2" />
    </symbol>

    <symbol id="icon-eye-off" viewBox="0 0 24 24">
        <path d="M10.733 5.076a10.744 10.744 0 0 1 11.205 6.575 1 1 0 0 1 0 .696 10.747 10.747 0 0 1-1.444 2.49"
        fill="none" stroke="currentColor" stroke-width="2" stroke-linecap="round" stroke-linejoin="round" />
        <path d="M14.084 14.158a3 3 0 0 1-4.242-4.242"
        fill="none" stroke="currentColor" stroke-width="2" stroke-linecap="round" stroke-linejoin="round" />
        <path d="M17.479 17.499a10.75 10.75 0 0 1-15.417-5.151 1 1 0 0 1 0-.696 10.75 10.75 0 0 1 4.446-5.143"
        fill="none" stroke="currentColor" stroke-width="2" stroke-linecap="round" stroke-linejoin="round" />
        <path d="m2 2 20 20" fill="none"
        stroke="currentColor" stroke-width="2" stroke-linecap="round" stroke-linejoin="round" />
    </symbol>

    <symbol id="icon-hand-coins" viewBox="0 0 24 24">
        <path d="M11 15h2a2 2 0 1 0 0-4h-3c-.6 0-1.1.2-1.4.6L3 17" fill="none" stroke="currentColor"
            stroke-width="2" stroke-linecap="round" stroke-linejoin="round" />
        <path d="m7 21 1.6-1.4c.3-.4.8-.6 1.4-.6h4c1.1 0 2.1-.4 2.8-1.2l4.6-4.4a2 2 0 0 0-2.75-2.91l-4.2 3.9"
            fill="none" stroke="currentColor" stroke-width="2" stroke-linecap="round" stroke-linejoin="round" />
        <path d="m2 16 6 6" fill="none" stroke="currentColor" stroke-width="2" stroke-linecap="round"
            stroke-linejoin="round" />
        <circle cx="16" cy="9" r="2.9" fill="none" stroke="currentColor" stroke-width="2" />
        <circle cx="6" cy="5" r="3" fill="none" stroke="currentColor" stroke-width="2" />
    </symbol>

    <symbol id="icon-chevron-down" viewBox="0 0 24 24">
        <path d="m6 9 6 6 6-6"
            fill="none"
            stroke="currentColor"
            stroke-width="2"
            stroke-linecap="round"
            stroke-linejoin="round" />
    </symbol>

    <symbol id="icon-chevron-left" viewBox="0 0 24 24">
        <path
            d="m15 18-6-6 6-6"
            fill="none"
            stroke="currentColor"
            stroke-width="2"
            stroke-linecap="round"
            stroke-linejoin="round" />
    </symbol>
</svg>